<svg width="142" height="60" viewBox="0 0 142 60" fill="none" xmlns="http://www.w3.org/2000/svg">
<g clip-path="url(#clip0_9_109)">
<path d="M6.724 28.776V38.552H0.12V2.1H14.524C21.908 2.1 27.888 8.08 27.888 15.412C27.888 22.796 21.908 28.776 14.524 28.776H6.724ZM21.284 15.412C21.284 11.72 18.268 8.704 14.524 8.704H6.724V22.172H14.524C18.268 22.172 21.284 19.156 21.284 15.412ZM77.0434 2.1H85.3634L71.4794 20.3L85.3634 38.552H77.0434V38.5L67.3194 25.76L64.1474 29.972V38.552H57.5954L57.5434 38.604V2.1H64.1474V19.052L67.3194 14.892L77.0434 2.1ZM125.782 2.1C131.71 2.1 136.546 6.936 136.546 12.864V12.916H129.942V12.864C129.942 10.576 128.07 8.704 125.782 8.704C123.494 8.704 121.622 10.576 121.622 12.864C121.622 15.152 123.494 17.024 125.782 17.024C131.71 17.024 136.546 21.86 136.546 27.788C136.546 33.716 131.71 38.552 125.782 38.552C119.854 38.552 115.018 33.716 115.018 27.788V27.736H121.622V27.788C121.622 30.076 123.494 31.948 125.782 31.948C128.07 31.948 129.942 30.076 129.942 27.788C129.942 25.5 128.07 23.628 125.782 23.628C119.854 23.628 115.018 18.792 115.018 12.864C115.018 6.936 119.854 2.1 125.782 2.1Z" fill="#E4E4E7"/>
<path d="M3 43L134 42.5" stroke="#E4E4E7" stroke-width="3"/>
<path d="M11.136 59.516H8.96L12.144 51.132L13.232 48.284L14.32 51.132L16.352 56.476L17.12 58.508L17.504 59.516H15.328L14.96 58.508H11.52L11.136 59.516ZM12.288 56.476H14.176L13.232 53.996L12.288 56.476ZM35.0128 52.396C35.0128 54.06 34.0208 55.548 32.4848 56.188L35.0128 59.516H32.4688V59.5L30.1808 56.508H28.5008V59.516H26.4688V48.3H30.9008C33.1728 48.3 35.0128 50.14 35.0128 52.396ZM28.5008 54.268V54.476H30.9008C30.9968 54.476 31.0768 54.46 31.1568 54.46C32.1968 54.332 32.9808 53.452 32.9808 52.396C32.9808 51.26 32.0528 50.332 30.9008 50.332H28.5008V53.548V54.268ZM48.8513 48.3H52.1153V50.332H48.8513V59.516H46.8193V50.332H43.5713V48.3H46.8193H48.8513ZM69.576 53.82L71.672 48.3H73.848L70.664 56.684L69.576 59.532L68.488 56.684L67.464 53.996L66.44 56.684L65.88 58.124L65.352 59.532L64.264 56.684L61.08 48.3H63.256V48.316L65.352 53.82L66.376 51.132L67.464 48.284L68.552 51.132L69.576 53.82ZM87.2044 48.3C88.7084 48.3 90.1164 48.892 91.1724 49.948C92.2284 51.004 92.8204 52.412 92.8204 53.9C92.8204 55.404 92.2284 56.812 91.1724 57.868C90.1164 58.924 88.7084 59.516 87.2044 59.516C85.7164 59.516 84.3084 58.924 83.2524 57.868C82.1804 56.812 81.6044 55.404 81.6044 53.9C81.6044 52.412 82.1804 51.004 83.2524 49.948C84.3084 48.892 85.7164 48.3 87.2044 48.3ZM90.7884 53.9C90.7884 51.932 89.1884 50.332 87.2044 50.332C85.2364 50.332 83.6364 51.932 83.6364 53.9C83.6364 55.884 85.2364 57.484 87.2044 57.484C89.1884 57.484 90.7884 55.884 90.7884 53.9ZM110.329 52.396C110.329 54.06 109.337 55.548 107.801 56.188L110.329 59.516H107.785V59.5L105.497 56.508H103.817V59.516H101.785V48.3H106.217C108.489 48.3 110.329 50.14 110.329 52.396ZM103.817 54.268V54.476H106.217C106.313 54.476 106.393 54.46 106.473 54.46C107.513 54.332 108.297 53.452 108.297 52.396C108.297 51.26 107.369 50.332 106.217 50.332H103.817V53.548V54.268ZM125.294 48.3H127.854L123.582 53.9L127.854 59.516H125.294V59.5L122.302 55.58L121.326 56.876V59.516H119.31L119.294 59.532V48.3H121.326V53.516L122.302 52.236L125.294 48.3Z" fill="#E4E4E7"/>
</g>
<defs>
<clipPath id="clip0_9_109">
<rect width="142" height="59" fill="white" transform="translate(0 0.5)"/>
</clipPath>
</defs>
</svg>
